<?xml version="1.0" encoding="UTF-8"?> <svg xmlns="http://www.w3.org/2000/svg" width="178.835" height="60.066" viewBox="0 0 178.835 60.066"><g id="Group_14350" data-name="Group 14350" transform="translate(-360 -20)"><g id="Group_14243" data-name="Group 14243" transform="translate(360 20)"><g id="Group_14241" data-name="Group 14241"><path id="Path_1820" data-name="Path 1820" d="M72.984,839.339a2.976,2.976,0,0,1-2.033.826v2.221H83.539l-.022-2.221a2.889,2.889,0,0,1-1.984-.814,4.439,4.439,0,0,1-.518-2.588V828.9a11.925,11.925,0,0,1,1.218-5.905,3.715,3.715,0,0,1,3.343-2.125,2.1,2.1,0,0,1,2.018,1.063,9.27,9.27,0,0,1,.578,3.969v10.863a4.466,4.466,0,0,1-.507,2.573,2.965,2.965,0,0,1-2,.826v2.221H98.185v-2.221a3.111,3.111,0,0,1-2-.874,4.366,4.366,0,0,1-.507-2.529v-9.422q0-5.642-1.559-8.089a5.569,5.569,0,0,0-5.08-2.443,8.726,8.726,0,0,0-4.476,1.24,14.09,14.09,0,0,0-4.028,3.791,6.659,6.659,0,0,0-2.136-3.769,6.176,6.176,0,0,0-4.028-1.262,8.611,8.611,0,0,0-4.628,1.348,13.977,13.977,0,0,0-4.061,4.013V816.4q-2.127.239-4.465.426t-5.1.355v2.266a3.159,3.159,0,0,1,2.151.615,3.429,3.429,0,0,1,.544,2.292v14.406a4.375,4.375,0,0,1-.507,2.529,3.142,3.142,0,0,1-2.018.874v2.221H68.878v-2.221a2.993,2.993,0,0,1-2.033-.826,4.286,4.286,0,0,1-.544-2.573V828.9A11.8,11.8,0,0,1,67.542,823a3.76,3.76,0,0,1,3.365-2.136,2.137,2.137,0,0,1,2.033,1.063,9.113,9.113,0,0,1,.589,3.969v10.863a4.286,4.286,0,0,1-.544,2.573Z" transform="translate(-56.12 -807.007)" fill="#ca9973"></path><path id="Path_1821" data-name="Path 1821" d="M207.206,841.858q1.749-1.088,1.747-2.125a.8.8,0,0,0-.226-.555.664.664,0,0,0-.507-.248,2.617,2.617,0,0,0-.814.259,2.552,2.552,0,0,1-.933.259.86.86,0,0,1-.733-.318,1.637,1.637,0,0,1-.237-.981V825.961q0-4.915-2.621-7.227t-8.149-2.314a14.033,14.033,0,0,0-7.416,1.747q-2.86,1.749-2.858,4.439a3.364,3.364,0,0,0,1.085,2.6,4.038,4.038,0,0,0,2.836.992,3.973,3.973,0,0,0,2.762-.933,3,3,0,0,0,1.063-2.351,3.84,3.84,0,0,0-.13-.981,2.8,2.8,0,0,0-.344-.815l-.685-1.063c-.015-.03-.048-.085-.1-.167a.917.917,0,0,1-.141-.285c0-.252.274-.492.826-.722a5.009,5.009,0,0,1,1.936-.344,4.362,4.362,0,0,1,3.517,1.218q1.016,1.216,1.014,4.5v3.473q-7.558.589-11.229,2.81a6.9,6.9,0,0,0-3.673,6.187,6.1,6.1,0,0,0,1.914,4.628,6.777,6.777,0,0,0,4.865,1.818,9.959,9.959,0,0,0,4.309-1.026,17.207,17.207,0,0,0,4.309-3.036,6.08,6.08,0,0,0,1.866,2.906,4.733,4.733,0,0,0,3,.922,6.972,6.972,0,0,0,3.732-1.085Zm-10.015-4.546a3.421,3.421,0,0,1-3.14,1.666,3.3,3.3,0,0,1-2.481-.922,3.46,3.46,0,0,1-.9-2.529,4.53,4.53,0,0,1,1.844-3.765,12,12,0,0,1,5.6-1.973c.048.678.074,1.174.081,1.488s.011.607.011.874a10.229,10.229,0,0,1-1.014,5.161Z" transform="translate(-136.151 -807.02)" fill="#ca9973"></path><path id="Path_1822" data-name="Path 1822" d="M269.889,797.287a4.511,4.511,0,0,0,3.047.992,4.616,4.616,0,0,0,3.08-.992,3.212,3.212,0,0,0,1.17-2.573,3.323,3.323,0,0,0-1.218-2.621,4.452,4.452,0,0,0-3.036-1.063,4.381,4.381,0,0,0-3.01,1.052,3.356,3.356,0,0,0-1.192,2.632A3.22,3.22,0,0,0,269.889,797.287Z" transform="translate(-190.016 -791.03)" fill="#ca9973"></path><path id="Path_1823" data-name="Path 1823" d="M266.778,822.373v14.406a4.375,4.375,0,0,1-.507,2.529,3.142,3.142,0,0,1-2.018.874V842.4h12.684v-2.221a3.111,3.111,0,0,1-2-.874,4.367,4.367,0,0,1-.507-2.529V816.42q-2.738.283-5.339.474t-5.005.307v2.266a3.27,3.27,0,0,1,2.162.589,3.474,3.474,0,0,1,.533,2.314Z" transform="translate(-187.094 -807.02)" fill="#ca9973"></path><path id="Path_1824" data-name="Path 1824" d="M316.963,869.121c.37-.322.759-.637,1.155-.944s.8-.6,1.2-.881a5.392,5.392,0,0,1,.692-.4,23.377,23.377,0,0,1-1.914-3.4h-2.2v6.583c.348-.315.7-.626,1.048-.94l.015-.015Z" transform="translate(-219.722 -836.663)" fill="#ca9973"></path><path id="Path_1825" data-name="Path 1825" d="M321.376,841.432c-.189.233-.381.459-.57.681l.589.2a15.634,15.634,0,0,0,5.031.874,8.847,8.847,0,0,0,6.331-2.233,7.851,7.851,0,0,0,2.362-5.987,6.774,6.774,0,0,0-1.958-5.005q-1.96-1.96-7.275-3.9c-.2-.078-.5-.189-.9-.33q-5.054-1.816-5.054-3.969a2.67,2.67,0,0,1,1.17-2.255,5.078,5.078,0,0,1,3.08-.863,6.108,6.108,0,0,1,3.98,1.466,11.445,11.445,0,0,1,3.036,4.3h2.125v-7.675h-2.033a1.684,1.684,0,0,1-.485.955,1.279,1.279,0,0,1-.911.344,21.04,21.04,0,0,1-2.384-.8,12.151,12.151,0,0,0-4.18-.8,8.917,8.917,0,0,0-6.2,2.136,7.086,7.086,0,0,0-2.373,5.516,6.7,6.7,0,0,0,1.947,4.9q1.949,1.971,6.931,3.884c.189.078.455.181.8.307q4.981,1.888,4.983,4.25a3.121,3.121,0,0,1-1.17,2.514,4.523,4.523,0,0,1-3.01.981,6.026,6.026,0,0,1-2.943-.744,3.721,3.721,0,0,1-.211.326C321.865,840.817,321.624,841.128,321.376,841.432Z" transform="translate(-219.004 -807.026)" fill="#ca9973"></path><path id="Path_1826" data-name="Path 1826" d="M388.8,839.838a11.377,11.377,0,0,0,3.8,2.5,12.8,12.8,0,0,0,9.141.015,11.4,11.4,0,0,0,3.8-2.514A12.674,12.674,0,0,0,408.5,835.4a14.855,14.855,0,0,0,1.014-5.55,13.689,13.689,0,0,0-3.447-9.681,12.417,12.417,0,0,0-17.749,0,13.728,13.728,0,0,0-3.436,9.681,14.975,14.975,0,0,0,1,5.561,12.714,12.714,0,0,0,2.917,4.428Zm5.328-18.822a3.163,3.163,0,0,1,6.094,0q.861,2.316.863,8.834c0,4.346-.289,7.238-.863,8.774a3.167,3.167,0,0,1-6.094,0q-.861-2.3-.863-8.774C393.266,825.536,393.554,822.56,394.128,821.016Z" transform="translate(-263.164 -807.032)" fill="#ca9973"></path><path id="Path_1827" data-name="Path 1827" d="M490.512,839.282a4.267,4.267,0,0,1-.518-2.5v-9.422q0-5.642-1.548-8.089a5.564,5.564,0,0,0-5.091-2.443,8.7,8.7,0,0,0-4.628,1.333,14.122,14.122,0,0,0-4.061,4.028V816.42q-2.127.239-4.465.426t-5.1.355v2.266a3.326,3.326,0,0,1,2.151.615,3.375,3.375,0,0,1,.544,2.292v14.406a4.375,4.375,0,0,1-.507,2.529,3.142,3.142,0,0,1-2.018.874V842.4h12.588v-2.221a2.993,2.993,0,0,1-2.033-.826,4.285,4.285,0,0,1-.544-2.573v-7.864a11.8,11.8,0,0,1,1.24-5.894,3.76,3.76,0,0,1,3.365-2.136,2.137,2.137,0,0,1,2.033,1.063,9.114,9.114,0,0,1,.589,3.969v10.862a4.285,4.285,0,0,1-.544,2.573,2.976,2.976,0,0,1-2.033.826V842.4h12.588v-2.221a3.092,3.092,0,0,1-2.007-.9Z" transform="translate(-313.684 -807.02)" fill="#ca9973"></path></g><g id="Group_14242" data-name="Group 14242" transform="translate(27.302 31.059)"><path id="Path_1828" data-name="Path 1828" d="M163.09,900.923c-.152.059-.307.111-.459.159s-.307.1-.459.159c-.318.119-.611.222-.874.318s-.529.185-.8.274-.552.178-.855.266-.655.193-1.044.311c-.507.141-1.055.274-1.644.4s-1.188.233-1.792.326-1.2.17-1.792.23-1.137.1-1.644.122a1.273,1.273,0,0,1-.663-.122.637.637,0,0,1-.326-.441.713.713,0,0,1,.2-.626,9.006,9.006,0,0,1,.726-.77c.2-.022.385-.048.555-.07s.344-.048.522-.07a13.687,13.687,0,0,0,3.18-.777,6.13,6.13,0,0,0,.644-.292,1.912,1.912,0,0,0,.592-.485.922.922,0,0,0-.026-.929,1.676,1.676,0,0,0-.733-.485,2.734,2.734,0,0,0-1.174-.133,5.279,5.279,0,0,0-1.548.485,17.552,17.552,0,0,0-1.785,1.2q-.777.6-1.573,1.114a.192.192,0,0,1-.022.048l-.093.022c-.252.059-.5.122-.74.2s-.444.122-.611.159q-2.155.511-3.969.815a8.919,8.919,0,0,1-3.262,0,4.075,4.075,0,0,1-.77-.248c-.241-.107-.481-.222-.715-.352a1.554,1.554,0,0,1-.452-.415.9.9,0,0,1-.063-.752l.407-.407.426-.426c.152-.13.318-.255.5-.381a2.7,2.7,0,0,0,.459-.4c.5-.541.974-1.081,1.44-1.618s.9-1.081,1.318-1.636a8.279,8.279,0,0,0,.707-1.077c.2-.367.4-.729.6-1.1q.478-.883-.107-1.325a.574.574,0,0,0-.441-.159,1.246,1.246,0,0,0-.6.267c-.341.248-.666.507-.97.777q-1.238,1.166-2.307,2.384a15.819,15.819,0,0,0-1.829,2.544,2.138,2.138,0,0,1-.211.337q-.122.161-.211.3l-.752.363c-.23.111-.463.233-.7.363a24.692,24.692,0,0,0-3.436,2.173,29.413,29.413,0,0,0-3.065,2.669,5.1,5.1,0,0,0-.433.459,3.3,3.3,0,0,0-.337.485,2.064,2.064,0,0,0-.193.459.577.577,0,0,0,.007.381.375.375,0,0,0,.237.229,1.1,1.1,0,0,0,.426.063,2.965,2.965,0,0,0,.511-.07,5.59,5.59,0,0,0,.541-.152c.27-.107.544-.218.822-.337a7.694,7.694,0,0,0,.822-.407,18.789,18.789,0,0,0,1.892-1.148c.611-.426,1.207-.87,1.785-1.344.259-.2.522-.407.785-.618s.57-.448.911-.707a3.4,3.4,0,0,0,1.4,1.3,6.558,6.558,0,0,0,1.962.574,5.606,5.606,0,0,0,1.333-.018c.526-.059,1.077-.144,1.662-.255s1.177-.244,1.785-.4,1.188-.3,1.74-.426c.459-.13.926-.27,1.4-.426.1-.03.185-.063.274-.1-.011.081-.022.159-.037.237a.975.975,0,0,1-.115.3,1.51,1.51,0,0,0-.23,1.089,1.044,1.044,0,0,0,.618.644,2,2,0,0,0,.8.237,5.055,5.055,0,0,0,.974-.007c.685-.07,1.492-.178,2.429-.318s1.9-.326,2.888-.555,1.962-.5,2.925-.8a15.2,15.2,0,0,0,2.555-1.059.517.517,0,0,0,.281-.344c.037-.148-.019-.233-.159-.255Zm-8.1-1.659a.727.727,0,0,1,.944.337c-.27.167-.489.292-.655.381a2.657,2.657,0,0,1-.522.211,5.62,5.62,0,0,1-.663.141c-.259.041-.607.093-1.044.152a6.884,6.884,0,0,1,1.936-1.218ZM140.4,898.043a7.962,7.962,0,0,1,.67-1.133,13.6,13.6,0,0,1,.974-1.218,16.108,16.108,0,0,1,1.2-1.211q.655-.594,1.344-1.122a5.888,5.888,0,0,1-.892,1.581q-.555.7-1.122,1.37-.422.511-.911,1a6.3,6.3,0,0,1-1.1.874c-.107.059-.167.07-.178.037a.325.325,0,0,1,.019-.178Zm-2.262,2.6q-1.111,1.005-2.332,1.918a25.029,25.029,0,0,1-2.51,1.651c-.259.141-.518.281-.777.426a1.4,1.4,0,0,1-.8.178.781.781,0,0,1,.141-.344,2.4,2.4,0,0,1,.3-.363c.118-.118.241-.233.37-.344s.252-.215.37-.311q1.077-.883,2.192-1.677a22.381,22.381,0,0,1,2.314-1.448c.118-.059.226-.118.326-.178a1.355,1.355,0,0,1,.326-.141.448.448,0,0,1,.2-.026q.117.011.133.044a.747.747,0,0,1-.267.618Z" transform="translate(-129.863 -885.7)" fill="#ca9973"></path><path id="Path_1829" data-name="Path 1829" d="M322.469,890.144c-.152.059-.307.111-.459.159s-.307.1-.459.159c-.318.118-.611.222-.874.318s-.529.185-.8.274-.552.178-.855.267-.655.193-1.044.311c-.507.141-1.055.274-1.644.4s-1.188.233-1.792.326-1.2.17-1.792.229-1.137.1-1.644.122a1.274,1.274,0,0,1-.663-.122.637.637,0,0,1-.326-.441.713.713,0,0,1,.2-.626,9.014,9.014,0,0,1,.726-.77c.2-.022.385-.048.555-.07s.344-.048.522-.07a13.675,13.675,0,0,0,3.18-.777,6.109,6.109,0,0,0,.644-.292,1.91,1.91,0,0,0,.592-.485.922.922,0,0,0-.026-.929,1.676,1.676,0,0,0-.733-.485,2.733,2.733,0,0,0-1.174-.133,5.275,5.275,0,0,0-1.548.485,17.541,17.541,0,0,0-1.785,1.2q-.777.6-1.573,1.114v.007c-.5.1-.992.211-1.488.326q-.983.228-1.936.407-.9.161-1.777.3a7.006,7.006,0,0,1-1.581.089,1.428,1.428,0,0,1-.855-.267.671.671,0,0,1-.152-.726,2.778,2.778,0,0,1,.1-.337,1.833,1.833,0,0,0,.081-.318.237.237,0,0,0-.1-.237.527.527,0,0,0-.326-.07,2.035,2.035,0,0,0-.5.1,2.9,2.9,0,0,0-.566.248c-.259.141-.511.292-.759.452s-.5.315-.759.467c-.411.259-.822.522-1.229.785a8,8,0,0,1-1.351.7.2.2,0,0,1-.2-.107.471.471,0,0,1-.007-.281,1.806,1.806,0,0,1,.122-.381c.059-.137.118-.255.178-.363.141-.27.3-.541.478-.815s.352-.548.529-.829c.13-.189.178-.326.152-.415s-.144-.152-.344-.185a.668.668,0,0,0-.318.007,3.566,3.566,0,0,0-.529.185,5.3,5.3,0,0,0-.511.326c-.152.111-.311.233-.478.363-.13.1-.267.193-.415.292s-.355.252-.626.452c.07-.119.137-.222.2-.318s.13-.185.193-.274.137-.185.211-.292.163-.222.255-.352c.3-.378.218-.566-.23-.566a1.023,1.023,0,0,0-.529.141,1.573,1.573,0,0,0-.459.352c-.237.307-.422.548-.555.726-.122.156-.23.3-.333.426-.185.052-.378.111-.578.174q-.389.122-.655.178a8.688,8.688,0,0,1-2.033.237,8.414,8.414,0,0,1-1.784-.2,1.269,1.269,0,0,1-.644-.326c-.159-.159-.315-.326-.466-.5a.841.841,0,0,0-.752-.337,2.71,2.71,0,0,0-1.14.37c-.389.211-.8.441-1.218.689.141-.33.248-.581.318-.759a.747.747,0,0,0,.078-.389c-.018-.081-.078-.122-.185-.122a3.763,3.763,0,0,0-.459.037c-.189.274-.378.552-.566.826-.241.048-.478.1-.707.163-.307.081-.648.178-1.026.281-.789.222-1.477.426-2.058.611s-1.148.352-1.688.511-1.1.315-1.688.466-1.262.311-2.04.478c-.426.093-.785.167-1.088.222a9.2,9.2,0,0,1-1.051.115,1.1,1.1,0,0,1-.222-.026,1.383,1.383,0,0,1-.274-.089.685.685,0,0,1-.237-.167.369.369,0,0,1-.1-.266,3.35,3.35,0,0,0,.459-.352,3.312,3.312,0,0,0,.37-.4,2.171,2.171,0,0,0,.248-.389.772.772,0,0,0,.089-.326.319.319,0,0,0-.2-.1.957.957,0,0,0-.363.019,2.425,2.425,0,0,0-.466.152,3.3,3.3,0,0,0-.522.281,11.238,11.238,0,0,1-2,1.077,16.23,16.23,0,0,1-2.262.759c-.022-.048.007-.111.089-.193a2.138,2.138,0,0,1,.3-.248c.118-.081.237-.163.352-.237s.193-.126.23-.152c.237-.141.437-.267.6-.381s.326-.218.478-.318.311-.2.478-.3.37-.215.618-.344a7.336,7.336,0,0,1,.9-.389,6.5,6.5,0,0,1,.918-.248.627.627,0,0,1,.37,0,.82.82,0,0,1,.274.152c.078.067.144.122.2.178a.254.254,0,0,0,.159.078,1.119,1.119,0,0,0,.6-.3.55.55,0,0,0,.159-.459c-.037-.659-.489-.9-1.362-.726-.329.081-.659.174-.989.274a8.056,8.056,0,0,0-1.007.381q-.511.222-1.011.478c-.381.141-.763.285-1.148.433-.411.159-.826.3-1.237.433a2.966,2.966,0,0,1-2.917-.248c-.237-.2-.466-.411-.689-.626s-.455-.437-.689-.663a1.088,1.088,0,0,0-.874-.389,2.867,2.867,0,0,0-1.281.618c-.5.341-.97.7-1.433,1.059s-.926.729-1.4,1.1c-.222.178-.452.355-.681.541s-.455.363-.681.541a10.3,10.3,0,0,1,1.051-1.907c.418-.6.852-1.2,1.3-1.8a8.526,8.526,0,0,1,1.288-1.377,10.254,10.254,0,0,1,1.592-1.1,50.452,50.452,0,0,0,5.805-3.924,41.133,41.133,0,0,0,5.117-4.772c.237-.27.47-.552.707-.84s.459-.581.67-.874a1.622,1.622,0,0,0,.381-.981.771.771,0,0,0-.433-.644,1.155,1.155,0,0,0-.848-.07,3.1,3.1,0,0,0-.988.478c-.389.27-.774.555-1.159.848s-.752.6-1.1.9q-2.083,1.872-4.154,3.736t-3.958,3.895c-.3.318-.581.641-.855.963s-.57.644-.874.963c-.152.167-.3.337-.452.511a6.388,6.388,0,0,1-.522.548c-.081.093-.2.237-.344.426s-.3.381-.452.581c-.178.237-.367.489-.566.759-.144.2-.281.4-.415.592-.193.044-.381.089-.555.133-.211.048-.552.148-1.014.3s-1.011.344-1.633.574-1.311.481-2.058.752-1.507.552-2.27.84-1.518.57-2.262.84-1.425.518-2.051.744-1.17.411-1.636.566a8.232,8.232,0,0,1-1,.281c-.259.048-.518.085-.777.115a3.089,3.089,0,0,1-.715.007,1.213,1.213,0,0,1-.548-.178.561.561,0,0,1-.255-.441,1.318,1.318,0,0,1,.352-.663c.189-.193.378-.374.566-.541a18.676,18.676,0,0,1,2.555-2.051,22.194,22.194,0,0,1,2.817-1.592,5.029,5.029,0,0,1,.6-.237c.2-.063.4-.126.6-.185a.3.3,0,0,1,.2.007c.063.03.1.067.1.115a.554.554,0,0,1-.019.237.481.481,0,0,1-.122.237c-.248.211-.5.415-.759.611s-.518.392-.777.592c-.211.167-.426.322-.637.467a1.244,1.244,0,0,0-.459.574.416.416,0,0,0,.389.211,1.214,1.214,0,0,0,.6-.193c.318-.2.637-.411.955-.626s.629-.444.937-.681a2.542,2.542,0,0,0,.785-.97,1.786,1.786,0,0,0,.133-.955.593.593,0,0,0-.433-.511,1.944,1.944,0,0,0-.874-.018,2.741,2.741,0,0,0-.381.1,3.889,3.889,0,0,0-.381.152,21.855,21.855,0,0,0-3.162,1.636,22.354,22.354,0,0,0-2.917,2.166c-.211.189-.418.389-.618.6a6.949,6.949,0,0,0-.548.655,1.863,1.863,0,0,0-.529,1.433c.081.389.4.611.955.67a8.342,8.342,0,0,0,.866.026,5.387,5.387,0,0,0,.9-.1c.2-.037.518-.118.955-.248s.948-.289,1.536-.478,1.233-.4,1.936-.637,1.414-.478,2.136-.726l2.147-.733c.707-.241,1.362-.466,1.97-.67s1.14-.389,1.6-.548.8-.274,1.026-.344c.13-.037.292-.081.485-.141s.385-.115.585-.17c-.518.722-1.026,1.436-1.514,2.151q-.161.228-.3.466a3.387,3.387,0,0,0-.23.466c-.167.411-.1.685.193.815a1.057,1.057,0,0,0,.529.044,1.432,1.432,0,0,0,.6-.274c.2-.141.392-.285.574-.433s.367-.3.555-.452q.761-.617,1.511-1.255c.5-.426,1-.84,1.511-1.255q.372-.3.777-.6a2.741,2.741,0,0,1,.918-.441c.093.059.189.122.281.193s.193.141.3.211c.237.189.466.381.7.574s.466.381.715.555a3.3,3.3,0,0,0,2.332.37c.248-.037.5-.085.744-.137-.007,0-.015.011-.022.015-.141.107-.281.211-.415.318s-.274.226-.415.352a1.544,1.544,0,0,0-.655,1.1c.011.33.241.511.689.548a1.852,1.852,0,0,0,.618-.037,4.616,4.616,0,0,0,.67-.211c.529-.211,1.051-.422,1.562-.626s1.04-.415,1.581-.626a1.23,1.23,0,0,0,.337.585,1.3,1.3,0,0,0,.555.3,2.838,2.838,0,0,0,.74.089,8.143,8.143,0,0,0,.874-.052q.317-.033.644-.089c.218-.037.444-.081.681-.141.87-.211,1.636-.411,2.3-.592s1.3-.367,1.907-.548,1.244-.374,1.892-.574,1.4-.426,2.262-.67a6.808,6.808,0,0,0,.726-.23l.07-.03c-.289.426-.574.855-.848,1.281-.1.141-.181.281-.255.415a3.9,3.9,0,0,0-.2.415c-.081.237-.011.389.211.459a1.08,1.08,0,0,0,.407-.007.891.891,0,0,0,.426-.255,3.617,3.617,0,0,0,.381-.37,4.264,4.264,0,0,1,.363-.37c.292-.281.592-.566.892-.848s.6-.559.911-.829a2.871,2.871,0,0,1,.585-.389,1.319,1.319,0,0,1,.67-.141,1.746,1.746,0,0,0,.585.566,3.7,3.7,0,0,0,.777.344,5.881,5.881,0,0,0,.918.2c.329.048.666.081,1.007.107a6.372,6.372,0,0,0,2.04-.159c.381-.089.774-.2,1.174-.337-.093.122-.2.267-.315.426-.226.3-.426.581-.611.855s-.37.555-.555.84q-.194.283-.133.433a.378.378,0,0,0,.292.2.952.952,0,0,0,.485-.1,1.544,1.544,0,0,0,.541-.326,1.594,1.594,0,0,0,.222-.193c.063-.07.126-.141.185-.211.152-.167.344-.359.574-.581s.452-.437.67-.637.418-.37.6-.511a.855.855,0,0,1,.381-.211.186.186,0,0,1,.152.026.148.148,0,0,1,.044.107.7.7,0,0,1-.018.141.844.844,0,0,1-.037.133q-.072.316-.178.655a1.417,1.417,0,0,0-.07.6.49.49,0,0,0,.281.37,1.091,1.091,0,0,0,.611.052,4.243,4.243,0,0,0,.885-.248,8.281,8.281,0,0,0,1.088-.529l.522-.344c.241-.159.5-.326.759-.5s.518-.333.759-.466a1.654,1.654,0,0,1,.541-.222.365.365,0,0,1,.107.078.323.323,0,0,1,.052.133,1.25,1.25,0,0,0,.929,1.026,5.092,5.092,0,0,0,2.2.037c.189-.022.37-.052.548-.081s.359-.056.548-.078q1.166-.178,2.421-.485c.8-.2,1.614-.415,2.447-.648a.409.409,0,0,1-.007.067c-.011.1-.026.2-.044.292a.975.975,0,0,1-.115.3,1.51,1.51,0,0,0-.23,1.089,1.044,1.044,0,0,0,.618.644,2,2,0,0,0,.8.237,5.055,5.055,0,0,0,.974-.007c.685-.07,1.492-.178,2.429-.318s1.9-.326,2.888-.555,1.962-.5,2.925-.8a15.2,15.2,0,0,0,2.555-1.059.516.516,0,0,0,.281-.344c.037-.148-.019-.233-.159-.255Zm-8.1-1.659a.727.727,0,0,1,.944.337c-.27.167-.489.292-.655.381a2.656,2.656,0,0,1-.522.211,5.63,5.63,0,0,1-.663.141c-.259.041-.607.093-1.044.152a6.888,6.888,0,0,1,1.936-1.218Zm-52.191-3.7c.411-.452.889-.952,1.433-1.492s1.129-1.114,1.759-1.714,1.266-1.192,1.907-1.777,1.27-1.14,1.881-1.67,1.177-1,1.7-1.4c.189-.141.337-.252.441-.337a2.881,2.881,0,0,1,.311-.211,2.485,2.485,0,0,1,.344-.167q.194-.078.511-.222a.2.2,0,0,1,.089.255.934.934,0,0,1-.193.326c-.2.281-.411.57-.626.866s-.452.578-.7.848a45.524,45.524,0,0,1-4.409,4.1,47.33,47.33,0,0,1-4.9,3.5.619.619,0,0,1-.178.078c-.059.018-.159.056-.3.115.211-.281.526-.652.937-1.1Z" transform="translate(-198.391 -874.921)" fill="#ca9973"></path></g></g><g id="Group_14245" data-name="Group 14245" transform="translate(397.5 74.749)"><path id="Path_1830" data-name="Path 1830" d="M162.593,944.146v.2h-1.548L159.5,941.98h-.211v1.474a.742.742,0,0,0,.144.548,1.2,1.2,0,0,0,.518.144v.2h-2.54v-.2a1.224,1.224,0,0,0,.518-.133.745.745,0,0,0,.144-.555V940.14a.765.765,0,0,0-.167-.585.828.828,0,0,0-.5-.1v-.181h2.421a2.988,2.988,0,0,1,1.577.341,1.093,1.093,0,0,1,.541.977,1.129,1.129,0,0,1-.429.937,2.27,2.27,0,0,1-.744.337l1.5,2.151a.347.347,0,0,0,.137.111.548.548,0,0,0,.178.022Zm-3.31-4.309v1.9a1.909,1.909,0,0,0,1.059-.2,1.109,1.109,0,0,0,.322-.937,1.231,1.231,0,0,0-.23-.822.864.864,0,0,0-.689-.259.637.637,0,0,0-.355.059.434.434,0,0,0-.107.255Z" transform="translate(-157.41 -939.137)" fill="#ca9973"></path><path id="Path_1831" data-name="Path 1831" d="M182.654,945.048H180.37a1.82,1.82,0,0,0,.226.952.893.893,0,0,0,.811.47.953.953,0,0,0,.57-.193,1.266,1.266,0,0,0,.33-.329l.2.107a2.5,2.5,0,0,1-.7.737,1.532,1.532,0,0,1-.833.215,1.552,1.552,0,0,1-1.229-.537,2.036,2.036,0,0,1-.019-2.58,1.579,1.579,0,0,1,1.248-.559,1.621,1.621,0,0,1,1.192.492,1.658,1.658,0,0,1,.492,1.222Zm-1.114-.27a2.318,2.318,0,0,0-.133-.926.454.454,0,0,0-.437-.278.471.471,0,0,0-.47.315,2.371,2.371,0,0,0-.13.889h1.174Z" transform="translate(-171.177 -941.693)" fill="#ca9973"></path><path id="Path_1832" data-name="Path 1832" d="M198.624,944.423h-.181a1.393,1.393,0,0,0-.374-.622.805.805,0,0,0-.559-.222.485.485,0,0,0-.341.126.384.384,0,0,0-.141.3c0,.207.144.385.437.537s.578.3.866.444a1.023,1.023,0,0,1,.459.859,1.13,1.13,0,0,1-.322.844,1.169,1.169,0,0,1-.859.315,1.651,1.651,0,0,1-.441-.074c-.17-.048-.337-.1-.5-.159q-.106,0-.211.233h-.178v-1.248h.207a2.245,2.245,0,0,0,.126.4.952.952,0,0,0,.918.592.517.517,0,0,0,.4-.148.489.489,0,0,0,.137-.352c0-.185-.152-.359-.459-.518-.555-.292-.844-.444-.863-.459a1,1,0,0,1-.466-.829,1.071,1.071,0,0,1,.329-.807,1.2,1.2,0,0,1,.855-.307,1.828,1.828,0,0,1,.4.044c.133.03.27.067.418.1a.173.173,0,0,0,.181-.152h.167v1.1Z" transform="translate(-181.889 -941.687)" fill="#ca9973"></path><path id="Path_1833" data-name="Path 1833" d="M213.071,941.42v.33h-.722v2.314a.41.41,0,0,0,.081.285.287.287,0,0,0,.218.089.381.381,0,0,0,.315-.189,2.01,2.01,0,0,0,.122-.2l.181.089a1.948,1.948,0,0,1-.344.533,1.017,1.017,0,0,1-.752.307.8.8,0,0,1-.729-.329,1.1,1.1,0,0,1-.13-.466v-2.436h-.392v-.2a6.605,6.605,0,0,0,.581-.555,8.025,8.025,0,0,0,.655-.84h.193v1.262h.722Z" transform="translate(-191.109 -939.691)" fill="#ca9973"></path><path id="Path_1834" data-name="Path 1834" d="M228.473,946.414l.1.152a1.324,1.324,0,0,1-.374.326.886.886,0,0,1-.455.115.607.607,0,0,1-.5-.181.849.849,0,0,1-.137-.352,1.755,1.755,0,0,1-.707.459,1.507,1.507,0,0,1-.481.078.842.842,0,0,1-.548-.189.764.764,0,0,1-.278-.626,1.007,1.007,0,0,1,.6-.874,6.875,6.875,0,0,1,1.414-.526v-.559a.749.749,0,0,0-.122-.474.658.658,0,0,0-.541-.189.541.541,0,0,0-.311.085.243.243,0,0,0-.126.185.438.438,0,0,0,.111.211.486.486,0,0,1,.111.3.385.385,0,0,1-.1.255.522.522,0,0,1-.407.167.506.506,0,0,1-.37-.13.526.526,0,0,1-.13-.385.785.785,0,0,1,.352-.64,1.742,1.742,0,0,1,1.059-.292,1.967,1.967,0,0,1,1.059.248.879.879,0,0,1,.444.789v1.955a.236.236,0,0,0,.041.148.152.152,0,0,0,.126.048.307.307,0,0,0,.074-.03l.074-.074Zm-1.351-.27v-1.1a1.445,1.445,0,0,0-.678.341.761.761,0,0,0-.241.574.631.631,0,0,0,.093.344.311.311,0,0,0,.281.152.547.547,0,0,0,.322-.111,1.211,1.211,0,0,0,.218-.2Z" transform="translate(-200.039 -941.694)" fill="#ca9973"></path><path id="Path_1835" data-name="Path 1835" d="M246.291,946.723v.181c-.47.044-.781.081-.933.107a3.338,3.338,0,0,0-.541.152v-.5a3.433,3.433,0,0,1-.426.315,1.278,1.278,0,0,1-.633.181.963.963,0,0,1-.792-.322,1.135,1.135,0,0,1-.222-.729v-1.9a.51.51,0,0,0-.07-.318.54.54,0,0,0-.3-.133v-.181h1.414v2.555a.828.828,0,0,0,.052.337.379.379,0,0,0,.37.189.646.646,0,0,0,.359-.1,1.139,1.139,0,0,0,.255-.226v-2.121a.427.427,0,0,0-.133-.37.918.918,0,0,0-.33-.081v-.181h1.518v2.706a.522.522,0,0,0,.081.337.431.431,0,0,0,.337.1Z" transform="translate(-210.915 -941.851)" fill="#ca9973"></path><path id="Path_1836" data-name="Path 1836" d="M262.829,946.72v.181h-2v-.181a.807.807,0,0,0,.292-.1.455.455,0,0,0,.111-.352v-2.21a.449.449,0,0,0-.111-.352.609.609,0,0,0-.292-.1v-.181h1.414v.6a2.359,2.359,0,0,1,.522-.541.871.871,0,0,1,.485-.152.571.571,0,0,1,.5.226.588.588,0,0,1,.118.359.536.536,0,0,1-.1.322.444.444,0,0,1-.385.189.482.482,0,0,1-.407-.226c-.111-.152-.2-.226-.255-.226a.366.366,0,0,0-.27.152.824.824,0,0,0-.181.57v1.414a.775.775,0,0,0,.1.481.607.607,0,0,0,.452.118Z" transform="translate(-222.541 -941.7)" fill="#ca9973"></path><path id="Path_1837" data-name="Path 1837" d="M280.253,946.414l.1.152a1.324,1.324,0,0,1-.374.326.886.886,0,0,1-.455.115.607.607,0,0,1-.5-.181.849.849,0,0,1-.137-.352,1.755,1.755,0,0,1-.707.459,1.507,1.507,0,0,1-.481.078.842.842,0,0,1-.548-.189.764.764,0,0,1-.278-.626,1.007,1.007,0,0,1,.6-.874,6.875,6.875,0,0,1,1.414-.526v-.559a.749.749,0,0,0-.122-.474.658.658,0,0,0-.541-.189.541.541,0,0,0-.311.085.243.243,0,0,0-.126.185.438.438,0,0,0,.111.211.486.486,0,0,1,.111.3.384.384,0,0,1-.1.255.522.522,0,0,1-.407.167.506.506,0,0,1-.37-.13.526.526,0,0,1-.13-.385.785.785,0,0,1,.352-.64,1.742,1.742,0,0,1,1.059-.292,1.967,1.967,0,0,1,1.059.248.879.879,0,0,1,.444.789v1.955a.236.236,0,0,0,.041.148.152.152,0,0,0,.126.048.308.308,0,0,0,.074-.03l.074-.074Zm-1.351-.27v-1.1a1.445,1.445,0,0,0-.678.341.761.761,0,0,0-.241.574.631.631,0,0,0,.093.344.311.311,0,0,0,.281.152.547.547,0,0,0,.322-.111,1.21,1.21,0,0,0,.218-.2Z" transform="translate(-232.649 -941.694)" fill="#ca9973"></path><path id="Path_1838" data-name="Path 1838" d="M298.029,946.714v.181h-1.773v-.181a.382.382,0,0,0,.359-.437v-1.818a1.115,1.115,0,0,0-.052-.385.367.367,0,0,0-.37-.233.639.639,0,0,0-.411.178c-.137.119-.207.2-.207.259v2a.356.356,0,0,0,.359.433v.181h-1.8v-.181a.75.75,0,0,0,.292-.111.447.447,0,0,0,.1-.337v-2.21a.5.5,0,0,0-.078-.33.536.536,0,0,0-.311-.118v-.181h1.444v.541a1.528,1.528,0,0,1,.344-.385,1.162,1.162,0,0,1,.733-.248.972.972,0,0,1,.655.218,1.04,1.04,0,0,1,.344.852v1.881a.658.658,0,0,0,.044.285.345.345,0,0,0,.329.152Z" transform="translate(-243.512 -941.694)" fill="#ca9973"></path><path id="Path_1839" data-name="Path 1839" d="M314.671,941.42v.33h-.722v2.314a.41.41,0,0,0,.081.285.287.287,0,0,0,.218.089.381.381,0,0,0,.315-.189,2.015,2.015,0,0,0,.122-.2l.181.089a1.947,1.947,0,0,1-.344.533,1.017,1.017,0,0,1-.752.307.8.8,0,0,1-.729-.329,1.1,1.1,0,0,1-.13-.466v-2.436h-.392v-.2a6.6,6.6,0,0,0,.581-.555,8.02,8.02,0,0,0,.655-.84h.193v1.262h.722Z" transform="translate(-255.094 -939.691)" fill="#ca9973"></path><path id="Path_1840" data-name="Path 1840" d="M334.876,940.954h1.548v.181a.9.9,0,0,0-.344.078.721.721,0,0,0-.211.222l-.329.541c-.111.17-.3.441-.57.811a3.4,3.4,0,0,0,.437.489.727.727,0,0,0,.466.189.445.445,0,0,0,.252-.07.562.562,0,0,0,.185-.215l.152.089-.329.537a1.207,1.207,0,0,1-.4.3,1.066,1.066,0,0,1-.474.119,1.166,1.166,0,0,1-.67-.207,3.273,3.273,0,0,1-.474-.444,3.631,3.631,0,0,1-.655.407,2.344,2.344,0,0,1-1.014.244,1.512,1.512,0,0,1-.992-.33,1.231,1.231,0,0,1-.452-1.007,1.467,1.467,0,0,1,.548-1.125,4.186,4.186,0,0,1,.926-.57,2.351,2.351,0,0,1-.392-1.081,1.05,1.05,0,0,1,.474-.937,1.734,1.734,0,0,1,.985-.263,1.444,1.444,0,0,1,.985.3.793.793,0,0,1,.278.615.891.891,0,0,1-.385.714,2.5,2.5,0,0,1-.759.385l1.144,1.61a5.382,5.382,0,0,0,.378-.5,1.107,1.107,0,0,0,.2-.555c0-.137-.03-.222-.085-.255a1.168,1.168,0,0,0-.411-.089v-.181Zm-2.825,1.2a1.673,1.673,0,0,0,.329.933,1.077,1.077,0,0,0,.874.555.808.808,0,0,0,.333-.074,1.857,1.857,0,0,0,.341-.211c-.122-.159-.278-.385-.474-.67-.1-.141-.259-.385-.489-.729l-.363-.541a1.448,1.448,0,0,0-.429.329.638.638,0,0,0-.13.407Zm.918-2.547a1.265,1.265,0,0,0,.211.615,4.192,4.192,0,0,0,.344.5,1.041,1.041,0,0,0,.418-.255.547.547,0,0,0,.107-.359,1.084,1.084,0,0,0-.181-.6.608.608,0,0,0-.511-.329.362.362,0,0,0-.389.433Z" transform="translate(-266.732 -938.91)" fill="#ca9973"></path><g id="Group_14244" data-name="Group 14244" transform="translate(74.379 0.126)"><path id="Path_1841" data-name="Path 1841" d="M358.31,939.431v-.181h4.346v1.5h-.2a1.411,1.411,0,0,0-.541-1.022,2.263,2.263,0,0,0-1.174-.226,1.077,1.077,0,0,0-.448.059c-.074.041-.107.133-.107.285v1.736l.059.015a1.16,1.16,0,0,0,.789-.226,1.35,1.35,0,0,0,.367-.9h.2v2.54h-.2a1.444,1.444,0,0,0-.359-.94,1.277,1.277,0,0,0-.855-.233v1.818a.369.369,0,0,0,.133.33.97.97,0,0,0,.5.089,2.228,2.228,0,0,0,1.088-.233,2.134,2.134,0,0,0,.9-1.089h.211l-.3,1.562H358.31v-.2a2.2,2.2,0,0,0,.4-.059c.174-.056.263-.211.263-.466v-3.632a.476.476,0,0,0-.2-.444,1.312,1.312,0,0,0-.466-.1Z" transform="translate(-358.31 -939.25)" fill="#ca9973"></path><path id="Path_1842" data-name="Path 1842" d="M382.371,943.574v.181a.563.563,0,0,0-.226.074.86.86,0,0,0-.211.344l-1.2,2.984h-.2l-.9-2.229c-.07-.181-.159-.381-.263-.6-.059-.13-.115-.244-.163-.341a.5.5,0,0,0-.122-.178.6.6,0,0,0-.2-.056v-.181h1.881v.181c-.144.015-.248.03-.311.041s-.093.07-.093.17a.164.164,0,0,0,.007.056,1.136,1.136,0,0,0,.067.17l.585,1.518.544-1.366a.748.748,0,0,0,.089-.33c0-.126-.048-.2-.152-.222a1.249,1.249,0,0,0-.27-.033v-.181Z" transform="translate(-371.264 -941.971)" fill="#ca9973"></path><path id="Path_1843" data-name="Path 1843" d="M399.554,945.048H397.27a1.82,1.82,0,0,0,.226.952.893.893,0,0,0,.811.47.953.953,0,0,0,.57-.193,1.266,1.266,0,0,0,.33-.329l.2.107a2.5,2.5,0,0,1-.7.737,1.532,1.532,0,0,1-.833.215,1.552,1.552,0,0,1-1.229-.537,2.036,2.036,0,0,1-.019-2.58,1.579,1.579,0,0,1,1.248-.559,1.621,1.621,0,0,1,1.192.492,1.658,1.658,0,0,1,.492,1.222Zm-1.114-.27a2.319,2.319,0,0,0-.133-.926.454.454,0,0,0-.437-.278.471.471,0,0,0-.47.315,2.37,2.37,0,0,0-.13.889h1.174Z" transform="translate(-382.153 -941.819)" fill="#ca9973"></path><path id="Path_1844" data-name="Path 1844" d="M417.059,946.714v.181h-1.773v-.181a.382.382,0,0,0,.359-.437v-1.818a1.115,1.115,0,0,0-.052-.385.367.367,0,0,0-.37-.233.639.639,0,0,0-.411.178c-.137.119-.207.2-.207.259v2a.356.356,0,0,0,.359.433v.181h-1.8v-.181a.75.75,0,0,0,.293-.111.447.447,0,0,0,.1-.337v-2.21a.5.5,0,0,0-.078-.33.536.536,0,0,0-.311-.118v-.181H414.6v.541a1.528,1.528,0,0,1,.344-.385,1.162,1.162,0,0,1,.733-.248.972.972,0,0,1,.655.218,1.04,1.04,0,0,1,.344.852v1.881a.658.658,0,0,0,.044.285.345.345,0,0,0,.33.152Z" transform="translate(-392.853 -941.82)" fill="#ca9973"></path><path id="Path_1845" data-name="Path 1845" d="M433.7,941.42v.33h-.722v2.314a.41.41,0,0,0,.081.285.287.287,0,0,0,.218.089.381.381,0,0,0,.315-.189,2.009,2.009,0,0,0,.122-.2l.181.089a1.949,1.949,0,0,1-.344.533,1.017,1.017,0,0,1-.752.307.8.8,0,0,1-.729-.329,1.1,1.1,0,0,1-.13-.466v-2.436h-.392v-.2a6.608,6.608,0,0,0,.581-.555,8.025,8.025,0,0,0,.655-.84h.193v1.262h.722Z" transform="translate(-404.434 -939.817)" fill="#ca9973"></path></g></g></g></svg> 