<?xml version="1.0" encoding="UTF-8"?> <svg xmlns="http://www.w3.org/2000/svg" width="220" height="60" viewBox="0 0 220 60" fill="none"><path d="M17 0.928223L30 8.73843V21.0718L26 19.0718V11.4051L17 5.21531L4 11.4812V51.2338L14 46.6623V20.0718L17 18.3718L35 26.8026V53.5718L31 56.0718V29.341L18 23.2233V49.4812L2.67267 55.9552L0 54.0718V8.66233L17 0.928223Z" fill="#101010"></path><path d="M58.2666 53.0715H54.1621L52.9316 47.4729C52.873 47.2385 52.7793 46.7727 52.6504 46.0754C52.5273 45.3782 52.4365 44.7952 52.3779 44.3264C52.3311 44.7073 52.2549 45.1819 52.1494 45.7502C52.0439 46.3127 51.9385 46.8313 51.833 47.3059C51.7334 47.7805 51.3086 49.7024 50.5586 53.0715H46.4541L43.2725 40.2219H46.6211L48.0186 46.6643C48.335 48.0881 48.5518 49.2219 48.6689 50.0657C48.7451 49.468 48.8799 48.6565 49.0732 47.6311C49.2725 46.6057 49.457 45.7561 49.627 45.0823L50.7607 40.2219H53.9775L55.0762 45.0823C55.2637 45.8616 55.4541 46.761 55.6475 47.7805C55.8408 48.8 55.9697 49.5618 56.0342 50.0657C56.1104 49.4153 56.3184 48.2874 56.6582 46.6819L58.082 40.2219H61.4307L58.2666 53.0715Z" fill="#101010"></path><path d="M76.0152 46.6292C76.0152 48.7913 75.485 50.4348 74.4244 51.5598C73.3639 52.6848 71.8111 53.2473 69.7662 53.2473C67.7506 53.2473 66.2037 52.6819 65.1256 51.551C64.0533 50.4202 63.5172 48.7737 63.5172 46.6116C63.5172 44.4729 64.0504 42.8411 65.1168 41.7161C66.1891 40.5852 67.7447 40.0198 69.7838 40.0198C71.8287 40.0198 73.3785 40.5793 74.4332 41.6985C75.4879 42.8176 76.0152 44.4612 76.0152 46.6292ZM67.1734 46.6292C67.1734 49.1135 68.0377 50.3557 69.7662 50.3557C70.6451 50.3557 71.2955 50.054 71.7174 49.4504C72.1451 48.8469 72.359 47.9065 72.359 46.6292C72.359 45.3459 72.1422 44.3997 71.7086 43.7903C71.2809 43.175 70.6393 42.8674 69.7838 42.8674C68.0436 42.8674 67.1734 44.1213 67.1734 46.6292Z" fill="#101010"></path><path d="M91.259 46.6292C91.259 48.7913 90.7287 50.4348 89.6682 51.5598C88.6076 52.6848 87.0549 53.2473 85.01 53.2473C82.9943 53.2473 81.4475 52.6819 80.3693 51.551C79.2971 50.4202 78.7609 48.7737 78.7609 46.6116C78.7609 44.4729 79.2941 42.8411 80.3605 41.7161C81.4328 40.5852 82.9885 40.0198 85.0275 40.0198C87.0725 40.0198 88.6223 40.5793 89.677 41.6985C90.7316 42.8176 91.259 44.4612 91.259 46.6292ZM82.4172 46.6292C82.4172 49.1135 83.2814 50.3557 85.01 50.3557C85.8889 50.3557 86.5393 50.054 86.9611 49.4504C87.3889 48.8469 87.6027 47.9065 87.6027 46.6292C87.6027 45.3459 87.3859 44.3997 86.9523 43.7903C86.5246 43.175 85.883 42.8674 85.0275 42.8674C83.2873 42.8674 82.4172 44.1213 82.4172 46.6292Z" fill="#101010"></path><path d="M105.387 46.3743C105.387 48.5188 104.795 50.1711 103.611 51.3313C102.433 52.4915 100.775 53.0715 98.6365 53.0715H94.4793V40.2219H98.9266C100.989 40.2219 102.58 40.7493 103.699 41.804C104.824 42.8586 105.387 44.3821 105.387 46.3743ZM101.783 46.4973C101.783 45.3196 101.549 44.4465 101.08 43.8782C100.617 43.3098 99.9109 43.0256 98.9617 43.0256H97.951V50.2239H98.7244C99.7791 50.2239 100.553 49.9192 101.045 49.3098C101.537 48.6946 101.783 47.7571 101.783 46.4973Z" fill="#101010"></path><path d="M114.197 53.0715L111.569 43.8167H111.49C111.613 45.3928 111.674 46.6174 111.674 47.4905V53.0715H108.598V40.2219H113.221L115.902 49.345H115.972L118.6 40.2219H123.232V53.0715H120.041V47.4377C120.041 47.1448 120.044 46.8196 120.05 46.4622C120.062 46.1047 120.103 45.2288 120.173 43.8342H120.094L117.501 53.0715H114.197Z" fill="#101010"></path><path d="M134.784 53.0715L134.151 50.6633H129.977L129.326 53.0715H125.512L129.704 40.1692H134.336L138.581 53.0715H134.784ZM133.431 47.8157L132.877 45.7063C132.748 45.2375 132.59 44.6311 132.402 43.887C132.221 43.1428 132.101 42.6096 132.042 42.2874C131.989 42.5862 131.884 43.0784 131.726 43.7639C131.573 44.4495 131.23 45.8 130.697 47.8157H133.431Z" fill="#101010"></path><path d="M144.35 48.3958V53.0715H140.879V40.2219H145.088C148.581 40.2219 150.327 41.4875 150.327 44.0188C150.327 45.5071 149.6 46.6584 148.147 47.4729L151.891 53.0715H147.954L145.229 48.3958H144.35ZM144.35 45.7854H145.001C146.213 45.7854 146.82 45.2493 146.82 44.177C146.82 43.2922 146.225 42.8499 145.036 42.8499H144.35V45.7854Z" fill="#101010"></path><path d="M159.629 53.0715H156.157V43.0608H153.02V40.2219H162.758V43.0608H159.629V53.0715Z" fill="#101010"></path><path d="M164.862 51.6125C164.862 51.0735 165.02 50.6575 165.337 50.3645C165.659 50.0715 166.125 49.925 166.734 49.925C167.314 49.925 167.76 50.0715 168.07 50.3645C168.381 50.6575 168.536 51.0735 168.536 51.6125C168.536 52.1399 168.375 52.553 168.053 52.8518C167.736 53.1448 167.297 53.2913 166.734 53.2913C166.154 53.2913 165.697 53.1448 165.363 52.8518C165.029 52.5588 164.862 52.1458 164.862 51.6125Z" fill="#101010"></path><path d="M50.1572 29.2336C50.1572 30.136 49.8314 30.8469 49.1797 31.3665C48.5326 31.886 47.6302 32.1458 46.4727 32.1458C45.4062 32.1458 44.4629 31.9452 43.6426 31.5442V29.5754C44.3171 29.8762 44.8867 30.0881 45.3516 30.2112C45.821 30.3342 46.2493 30.3958 46.6367 30.3958C47.1016 30.3958 47.457 30.3069 47.7031 30.1292C47.9538 29.9514 48.0791 29.6871 48.0791 29.3362C48.0791 29.1402 48.0244 28.967 47.915 28.8167C47.8057 28.6617 47.6439 28.5136 47.4297 28.3723C47.2201 28.231 46.7894 28.0055 46.1377 27.6956C45.527 27.4084 45.069 27.1327 44.7637 26.8684C44.4583 26.6041 44.2145 26.2965 44.0322 25.9456C43.8499 25.5946 43.7588 25.1845 43.7588 24.7151C43.7588 23.831 44.0573 23.136 44.6543 22.6301C45.2559 22.1243 46.0853 21.8713 47.1426 21.8713C47.6621 21.8713 48.1566 21.9329 48.626 22.0559C49.0999 22.179 49.5944 22.3521 50.1094 22.5754L49.4258 24.2229C48.8926 24.0042 48.4505 23.8515 48.0996 23.7649C47.7533 23.6783 47.4115 23.635 47.0742 23.635C46.6732 23.635 46.3656 23.7284 46.1514 23.9153C45.9372 24.1021 45.8301 24.3459 45.8301 24.6467C45.8301 24.8336 45.8734 24.9976 45.96 25.1389C46.0465 25.2756 46.1833 25.4101 46.3701 25.5422C46.5615 25.6698 47.0104 25.9023 47.7168 26.2395C48.651 26.6861 49.2913 27.135 49.6377 27.5862C49.984 28.0328 50.1572 28.5819 50.1572 29.2336Z" fill="#101010"></path><path d="M56.5242 32.009H54.4051V23.7786H51.6912V22.0149H59.2381V23.7786H56.5242V32.009Z" fill="#101010"></path><path d="M69.6109 22.0149V28.4817C69.6109 29.22 69.4446 29.8671 69.1119 30.4231C68.7838 30.9791 68.3076 31.4052 67.6832 31.7014C67.0589 31.9976 66.3206 32.1458 65.4684 32.1458C64.1832 32.1458 63.1852 31.8176 62.4742 31.1614C61.7633 30.5006 61.4078 29.5982 61.4078 28.4543V22.0149H63.5201V28.1331C63.5201 28.9032 63.6751 29.4683 63.985 29.8284C64.2949 30.1884 64.8076 30.3684 65.523 30.3684C66.2158 30.3684 66.7171 30.1884 67.027 29.8284C67.3414 29.4638 67.4986 28.8941 67.4986 28.1194V22.0149H69.6109Z" fill="#101010"></path><path d="M81.0502 26.9163C81.0502 28.5614 80.5808 29.8215 79.642 30.6965C78.7077 31.5715 77.3565 32.009 75.5883 32.009H72.7582V22.0149H75.8959C77.5274 22.0149 78.7943 22.4456 79.6967 23.3069C80.599 24.1682 81.0502 25.3713 81.0502 26.9163ZM78.849 26.9709C78.849 24.8245 77.9011 23.7512 76.0053 23.7512H74.8773V30.259H75.7865C77.8282 30.259 78.849 29.163 78.849 26.9709Z" fill="#101010"></path><path d="M83.8215 32.009V22.0149H85.9406V32.009H83.8215Z" fill="#101010"></path><path d="M98.2275 26.9983C98.2275 28.6526 97.8174 29.9241 96.9971 30.8127C96.1768 31.7014 95.001 32.1458 93.4697 32.1458C91.9385 32.1458 90.7627 31.7014 89.9424 30.8127C89.1221 29.9241 88.7119 28.648 88.7119 26.9846C88.7119 25.3212 89.1221 24.052 89.9424 23.177C90.7673 22.2974 91.9476 21.8577 93.4834 21.8577C95.0192 21.8577 96.1927 22.2997 97.0039 23.1838C97.8197 24.068 98.2275 25.3394 98.2275 26.9983ZM90.9336 26.9983C90.9336 28.1148 91.1455 28.9556 91.5693 29.5208C91.9932 30.0859 92.6266 30.3684 93.4697 30.3684C95.1605 30.3684 96.0059 29.245 96.0059 26.9983C96.0059 24.747 95.165 23.6213 93.4834 23.6213C92.6403 23.6213 92.0046 23.9062 91.5762 24.4758C91.1478 25.0409 90.9336 25.8818 90.9336 26.9983Z" fill="#101010"></path><path d="M46.5068 11.0793H43.6289V6.08228H46.5068V6.95044H44.6885V8.04761H46.3804V8.91577H44.6885V10.2043H46.5068V11.0793Z" fill="#DCAC7F"></path><path d="M50.8524 9.69165C50.8524 10.1428 50.6895 10.4983 50.3637 10.7581C50.0401 11.0178 49.5889 11.1477 49.0102 11.1477C48.477 11.1477 48.0053 11.0474 47.5951 10.8469V9.86255C47.9324 10.0129 48.2172 10.1189 48.4496 10.1804C48.6843 10.2419 48.8985 10.2727 49.0922 10.2727C49.3246 10.2727 49.5023 10.2283 49.6254 10.1394C49.7507 10.0505 49.8134 9.91838 49.8134 9.74292C49.8134 9.64494 49.786 9.55835 49.7313 9.48315C49.6767 9.40568 49.5958 9.33162 49.4887 9.26099C49.3839 9.19035 49.1685 9.07756 48.8427 8.92261C48.5373 8.77905 48.3083 8.64119 48.1557 8.50903C48.003 8.37687 47.8811 8.22306 47.7899 8.04761C47.6988 7.87215 47.6532 7.66707 47.6532 7.43237C47.6532 6.99032 47.8025 6.64282 48.101 6.38989C48.4018 6.13696 48.8165 6.0105 49.3451 6.0105C49.6049 6.0105 49.8521 6.04126 50.0868 6.10278C50.3238 6.16431 50.571 6.2509 50.8285 6.36255L50.4867 7.18628C50.2201 7.0769 49.9991 7.00057 49.8236 6.95728C49.6505 6.91398 49.4796 6.89233 49.3109 6.89233C49.1104 6.89233 48.9566 6.93905 48.8495 7.03247C48.7424 7.1259 48.6889 7.2478 48.6889 7.39819C48.6889 7.49162 48.7105 7.57365 48.7538 7.64429C48.7971 7.71265 48.8655 7.77987 48.9589 7.84595C49.0546 7.90975 49.279 8.02596 49.6322 8.19458C50.0993 8.41789 50.4195 8.64233 50.5927 8.86792C50.7659 9.09123 50.8524 9.3658 50.8524 9.69165Z" fill="#DCAC7F"></path><path d="M54.0359 11.0793H52.9764V6.96411H51.6194V6.08228H55.3929V6.96411H54.0359V11.0793Z" fill="#DCAC7F"></path><path d="M56.2829 10.5906C56.2829 10.3992 56.3342 10.2545 56.4367 10.1565C56.5393 10.0585 56.6885 10.0095 56.8845 10.0095C57.0736 10.0095 57.2194 10.0597 57.322 10.1599C57.4268 10.2602 57.4792 10.4037 57.4792 10.5906C57.4792 10.7706 57.4268 10.913 57.322 11.0178C57.2172 11.1204 57.0713 11.1716 56.8845 11.1716C56.6931 11.1716 56.545 11.1215 56.4401 11.0212C56.3353 10.9187 56.2829 10.7751 56.2829 10.5906Z" fill="#DCAC7F"></path><path d="M64.1709 11.0793H60.6777V10.3445L61.9321 9.07642C62.3035 8.69588 62.5462 8.4327 62.6602 8.28687C62.7741 8.13875 62.8561 8.00203 62.9062 7.87671C62.9564 7.75138 62.9814 7.6215 62.9814 7.48706C62.9814 7.28654 62.9256 7.13729 62.814 7.03931C62.7046 6.94132 62.5576 6.89233 62.373 6.89233C62.1794 6.89233 61.9914 6.93677 61.8091 7.02563C61.6268 7.1145 61.4365 7.24097 61.2383 7.40503L60.6641 6.72485C60.9102 6.51522 61.1141 6.36711 61.2759 6.28052C61.4377 6.19393 61.6143 6.12785 61.8057 6.08228C61.9971 6.03442 62.2113 6.0105 62.4482 6.0105C62.7604 6.0105 63.0361 6.06746 63.2754 6.1814C63.5146 6.29533 63.7004 6.45483 63.8325 6.65991C63.9647 6.86499 64.0308 7.09969 64.0308 7.36401C64.0308 7.59416 63.9897 7.81063 63.9077 8.01343C63.828 8.21395 63.7026 8.42017 63.5317 8.63208C63.3631 8.84399 63.0646 9.14591 62.6362 9.53784L61.9937 10.1428V10.1907H64.1709V11.0793Z" fill="#DCAC7F"></path><path d="M68.4926 8.58081C68.4926 9.45353 68.349 10.0995 68.0619 10.5188C67.7771 10.9381 67.3373 11.1477 66.7426 11.1477C66.1661 11.1477 65.7309 10.9312 65.4369 10.4983C65.1452 10.0653 64.9994 9.42619 64.9994 8.58081C64.9994 7.69897 65.1418 7.04956 65.4267 6.63257C65.7115 6.2133 66.1501 6.00366 66.7426 6.00366C67.3191 6.00366 67.7543 6.22241 68.0482 6.65991C68.3445 7.09741 68.4926 7.73771 68.4926 8.58081ZM66.0487 8.58081C66.0487 9.19377 66.1011 9.63354 66.206 9.90015C66.3131 10.1645 66.4919 10.2966 66.7426 10.2966C66.9887 10.2966 67.1664 10.1622 67.2758 9.89331C67.3852 9.62443 67.4398 9.18693 67.4398 8.58081C67.4398 7.96785 67.384 7.52808 67.2724 7.26147C67.163 6.99259 66.9864 6.85815 66.7426 6.85815C66.4942 6.85815 66.3165 6.99259 66.2094 7.26147C66.1023 7.52808 66.0487 7.96785 66.0487 8.58081Z" fill="#DCAC7F"></path><path d="M72.8416 8.58081C72.8416 9.45353 72.698 10.0995 72.4109 10.5188C72.1261 10.9381 71.6863 11.1477 71.0916 11.1477C70.5151 11.1477 70.0799 10.9312 69.7859 10.4983C69.4943 10.0653 69.3484 9.42619 69.3484 8.58081C69.3484 7.69897 69.4909 7.04956 69.7757 6.63257C70.0605 6.2133 70.4992 6.00366 71.0916 6.00366C71.6681 6.00366 72.1033 6.22241 72.3973 6.65991C72.6935 7.09741 72.8416 7.73771 72.8416 8.58081ZM70.3978 8.58081C70.3978 9.19377 70.4502 9.63354 70.555 9.90015C70.6621 10.1645 70.841 10.2966 71.0916 10.2966C71.3377 10.2966 71.5154 10.1622 71.6248 9.89331C71.7342 9.62443 71.7889 9.18693 71.7889 8.58081C71.7889 7.96785 71.733 7.52808 71.6214 7.26147C71.512 6.99259 71.3354 6.85815 71.0916 6.85815C70.8432 6.85815 70.6655 6.99259 70.5584 7.26147C70.4513 7.52808 70.3978 7.96785 70.3978 8.58081Z" fill="#DCAC7F"></path><path d="M77.1975 8.21509C77.1975 9.19946 76.9901 9.93433 76.5754 10.4197C76.1607 10.905 75.5329 11.1477 74.6921 11.1477C74.3959 11.1477 74.1714 11.1318 74.0187 11.0999V10.2522C74.2102 10.3 74.4107 10.324 74.6203 10.324C74.9735 10.324 75.264 10.2727 75.4919 10.1702C75.7198 10.0653 75.8941 9.90243 76.0148 9.6814C76.1356 9.45809 76.2051 9.15161 76.2233 8.76196H76.1823C76.0502 8.97616 75.8975 9.12655 75.7243 9.21313C75.5511 9.29972 75.3347 9.34302 75.0749 9.34302C74.6397 9.34302 74.2967 9.20402 74.0461 8.92603C73.7954 8.64575 73.6701 8.25724 73.6701 7.7605C73.6701 7.22502 73.8216 6.80233 74.1247 6.49243C74.43 6.18026 74.8448 6.02417 75.3688 6.02417C75.738 6.02417 76.0604 6.11076 76.3361 6.28394C76.6141 6.45711 76.8272 6.7089 76.9753 7.03931C77.1234 7.36743 77.1975 7.75936 77.1975 8.21509ZM75.3894 6.87183C75.1706 6.87183 74.9997 6.94702 74.8767 7.09741C74.7536 7.2478 74.6921 7.46427 74.6921 7.74683C74.6921 7.98836 74.7479 8.17977 74.8596 8.32104C74.9712 8.46232 75.141 8.53296 75.3688 8.53296C75.583 8.53296 75.7665 8.46346 75.9191 8.32446C76.0718 8.18319 76.1481 8.0214 76.1481 7.83911C76.1481 7.56795 76.0764 7.33895 75.9328 7.1521C75.7915 6.96525 75.6104 6.87183 75.3894 6.87183Z" fill="#DCAC7F"></path></svg> 